<?xml version="1.0" encoding="UTF-8"?>
<svg xmlns="http://www.w3.org/2000/svg" width="200px" height="200px" viewBox="0 0 300 300">

<g transform="translate(0,0) scale(0.9)">

<path style="fill-rule:nonzero;fill:rgb(100%,100%,100%);stroke-width:7.8;stroke:rgb(97.254902%,0%,0%);" 
d="M 67.629627 3.768518 L 315.662024 67.629627 L 252.097212 315.662024 L 3.773148 251.99999 
M 188.240733 207.217584 L 207.999992 134.601847 L 135.379624 115.037032 L 115.81481 187.458326"
transform="matrix(0.84375,0,0,0.84375,0,0)"/>

<path style="fill:none;stroke-width:7.8;stroke:rgb(97.254902%,0%,0%);" 
d="M 71.34259 4.726852 L 7.546296 252.967583"
transform="matrix(0.84375,0,0,0.84375,0,0)"/>

<path style="fill:rgb(100%,100%,100%);" 
d="M 159.679688 171.636719 L 98.570312 154.964844"/>

<path style="fill:rgb(97.254902%,0%,0%);" 
d="M 99.425781 151.757812 L 97.71875 158.167969 L 158.828125 174.839844 L 160.53125 168.433594 Z"/>

<path style="fill:rgb(100%,100%,100%);stroke-width:0.727172;stroke:rgb(97.254902%,0%,0%);" 
d="M 1.749812 11.25021 L 1.749812 14.249795 L 4.749817 14.249795 L 14.250185 4.749848 L 11.25018 1.749842 Z"
transform="matrix(9.282535,0,0,9.282535,125.886215,125.885932)"/>

<path style="fill:rgb(100%,100%,100%);stroke-width:0.727172;stroke:rgb(97.254902%,0%,0%);" 
d="M 8.750105 4.749848 L 11.25018 7.249922"
transform="matrix(9.282535,0,0,9.282535,125.886215,125.885932)"/>

</g>
</svg>
