<?xml version="1.0" encoding="UTF-8" standalone="no"?>
<svg
   xmlns="http://www.w3.org/2000/svg"
   viewBox="0 0 350 350"
   width="350"
   height="350">

  <path
     fill="#ffffff"
     d="M 67.629881,3.7707981 315.66254,67.6285 252.09686,315.66115 3.772179,251.99814 m 184.466981,-44.77827 19.76085,-72.61866 -72.61867,-19.56616 -19.56615,72.42398"
     style="stroke:#f80000;stroke-width:7.8" />

  <path
     d="M 71.340883,4.7261757 7.5480632,252.96617"
     style="stroke:#f80000;stroke-width:7.8;fill:none" />

  <g transform="matrix(0.97081051,0,0,0.98322064,0.42146687,0.83188547)">
    <path d="m 194.50456,206.04875 -74.6,-20.1" fill="#ffffff"/>
    <path d="m 120.94531,182.08594 -2.08203,7.72461 74.60156,20.09961 2.08008,-7.72461 z" fill="#f80000"/>
  </g>

  <g
     style="fill:#ffffff;stroke:#f80000;stroke-width:0.727172"
     transform="matrix(11.001523,0,0,11.001523,149.19847,149.19813)">

    <polygon points="1.75 11.25 1.75 14.25 4.75 14.25 14.25 4.75 11.25 1.75"/>
    <line x1="8.75" y1="4.75" x2="11.25" y2="7.25"/>
  </g>

</svg>