<?xml version="1.0" encoding="UTF-8" standalone="no"?>
<svg
   viewBox="0 0 102656.16 102656.16"
   version="1.1"
   id="svg1"
   xml:space="preserve"
   width="102656.16"
   height="102656.16"
   xmlns="http://www.w3.org/2000/svg"
   xmlns:svg="http://www.w3.org/2000/svg"><defs
     id="defs1" /><path
     fill="#ffffff"
     d="M 67.629881,3.7707981 315.66254,67.6285 252.09686,315.66115 3.772179,251.99814 m 184.466981,-44.77827 19.76085,-72.61866 -72.61867,-19.56616 -19.56615,72.42398"
     id="path1"
     style="fill:#ffffff;fill-opacity:1;stroke:#f80000;stroke-width:7.78753;stroke-dasharray:none;stroke-opacity:1" /><path
     d="M 71.340883,4.7261757 7.5480632,252.96617"
     style="fill:#ffffff;fill-opacity:1;stroke:#f80000;stroke-width:7.80469;stroke-dasharray:none;stroke-opacity:1"
     id="path1-5" /><g
     id="path1-2"
     style="opacity:1"
     transform="matrix(0.97081051,0,0,0.98322064,0.42146687,0.83188547)"><path
       style="baseline-shift:baseline;display:inline;overflow:visible;vector-effect:none;fill:#ffffff;enable-background:accumulate;stop-color:#000000;stop-opacity:1"
       d="m 194.50456,206.04875 -74.6,-20.1"
       id="path8" /><path
       style="baseline-shift:baseline;display:inline;overflow:visible;vector-effect:none;fill:#f80000;fill-opacity:1;enable-background:accumulate;stop-color:#000000;stop-opacity:1"
       d="m 120.94531,182.08594 -2.08203,7.72461 74.60156,20.09961 2.08008,-7.72461 z"
       id="path9" /></g><g
     style="fill:#ffffff;fill-opacity:1;stroke:#f80000;stroke-width:0.727172;stroke-linecap:round;stroke-linejoin:round;stroke-dasharray:none;stroke-opacity:1"
     id="g1"
     transform="matrix(11.001523,0,0,11.001523,149.19847,149.19813)"><polygon
       points="1.75,11.25 1.75,14.25 4.75,14.25 14.25,4.75 11.25,1.75 "
       id="polygon1"
       style="fill:#ffffff;fill-opacity:1;stroke:#f80000;stroke-width:0.727172;stroke-dasharray:none;stroke-opacity:1" /><line
       x1="8.75"
       y1="4.75"
       x2="11.25"
       y2="7.25"
       id="line1"
       style="fill:#ffffff;fill-opacity:1;stroke:#f80000;stroke-width:0.727172;stroke-dasharray:none;stroke-opacity:1" /></g></svg>
